<svg xmlns="http://www.w3.org/2000/svg" width="24" height="24" fill="none">
  <path d="M12 4.2c-4.2 0-7.6 3.2-7.6 7.2 0 1.4.4 2.7 1.2 3.9L4.8 20l4.9-1.5c1 .5 2.1.8 3.3.8 4.2 0 7.6-3.2 7.6-7.2S16.2 4.2 12 4.2Z" fill="#2563eb" opacity=".14"/>
  <path d="M12 4.2c-4.2 0-7.6 3.2-7.6 7.2 0 1.4.4 2.7 1.2 3.9L4.8 20l4.9-1.5c1 .5 2.1.8 3.3.8 4.2 0 7.6-3.2 7.6-7.2S16.2 4.2 12 4.2Z"
        stroke="#2563eb" stroke-width="1.3" stroke-linejoin="round"/>
  <path d="M10.1 9.2c.2-.3.5-.4.8-.2l.7.4c.3.2.4.6.2.9l-.3.5c.7 1 1.6 1.8 2.7 2.4l.4-.5c.2-.3.6-.3.9-.1l.7.4c.3.2.4.6.2.9-.4.7-1.1 1-1.9.8-2.7-.6-5.1-2.8-6-5.3-.3-.8 0-1.7.6-2.2Z"
        fill="#2563eb"/>
</svg>
